G04*
G04 #@! TF.GenerationSoftware,Altium Limited,Altium Designer,22.9.1 (49)*
G04*
G04 Layer_Color=8388736*
%FSLAX25Y25*%
%MOIN*%
G70*
G04*
G04 #@! TF.SameCoordinates,F90F1F70-A081-4BF1-957E-811509834440*
G04*
G04*
G04 #@! TF.FilePolarity,Negative*
G04*
G01*
G75*
%ADD15R,0.02362X0.00984*%
%ADD16R,0.00984X0.02362*%
%ADD17R,0.06717X0.04546*%
%ADD19R,0.05000X0.15512*%
%ADD20R,0.01394X0.01034*%
%ADD21R,0.02631X0.02648*%
%ADD22R,0.17323X0.07480*%
%ADD23R,0.15512X0.05000*%
%ADD28R,0.03591X0.03775*%
%ADD29R,0.01860X0.01843*%
%ADD30R,0.01843X0.01860*%
%ADD31R,0.05315X0.03740*%
%ADD32R,0.04749X0.03765*%
%ADD34R,0.14567X0.03858*%
%ADD35R,0.03197X0.02985*%
%ADD36R,0.04453X0.03591*%
%ADD37R,0.01968X0.01575*%
%ADD38R,0.00984X0.07185*%
%ADD39O,0.01981X0.07493*%
%ADD40R,0.29147X0.42139*%
%ADD41R,0.12020X0.04934*%
%ADD42R,0.03241X0.03398*%
%ADD43R,0.03359X0.03359*%
%ADD44R,0.02572X0.04540*%
%ADD45C,0.08300*%
%ADD46C,0.21800*%
%ADD47C,0.05800*%
G36*
X89500Y192500D02*
X121000D01*
Y118500D01*
X74500D01*
Y220000D01*
X89500D01*
Y192500D01*
D02*
G37*
G36*
X286000Y143500D02*
X192000D01*
X192500Y143000D01*
Y62000D01*
X173000D01*
Y198500D01*
X201500Y227000D01*
X286000D01*
Y143500D01*
D02*
G37*
D15*
X137575Y253941D02*
D03*
Y251382D02*
D03*
Y248823D02*
D03*
Y246854D02*
D03*
X130488D02*
D03*
Y248823D02*
D03*
Y251382D02*
D03*
Y253941D02*
D03*
D16*
X136000Y244000D02*
D03*
X134031D02*
D03*
X132063D02*
D03*
D17*
X106000Y257023D02*
D03*
X167000Y260523D02*
D03*
Y250477D02*
D03*
X106000Y246977D02*
D03*
D19*
X246000Y46744D02*
D03*
X236000D02*
D03*
X226000D02*
D03*
X216000D02*
D03*
X246000Y22256D02*
D03*
X236000D02*
D03*
X226000D02*
D03*
X216000D02*
D03*
D20*
X218000Y126500D02*
D03*
X215998D02*
D03*
D21*
X139523Y219500D02*
D03*
X143477D02*
D03*
D22*
X104374Y30500D02*
D03*
X138626D02*
D03*
D23*
X254256Y102000D02*
D03*
Y92000D02*
D03*
Y82000D02*
D03*
Y72000D02*
D03*
X278744Y102000D02*
D03*
Y92000D02*
D03*
Y82000D02*
D03*
Y72000D02*
D03*
D28*
X150500Y256361D02*
D03*
Y250639D02*
D03*
X116000Y254861D02*
D03*
Y249139D02*
D03*
D29*
X165500Y222583D02*
D03*
Y219417D02*
D03*
X195000Y245917D02*
D03*
Y249083D02*
D03*
D30*
X151000Y234500D02*
D03*
X154166D02*
D03*
D31*
X116000Y270000D02*
D03*
Y275905D02*
D03*
X103529Y270000D02*
D03*
Y275905D02*
D03*
D32*
X156000Y271965D02*
D03*
Y280035D02*
D03*
D34*
X134000Y274665D02*
D03*
Y265335D02*
D03*
D35*
X86500Y87032D02*
D03*
Y91969D02*
D03*
D36*
X122957Y225500D02*
D03*
X128000D02*
D03*
D37*
X117500Y239075D02*
D03*
Y235925D02*
D03*
D38*
X134031Y252614D02*
D03*
D39*
X219937Y91571D02*
D03*
X217969D02*
D03*
X216000D02*
D03*
X214032D02*
D03*
X212063D02*
D03*
X219937Y75429D02*
D03*
X217969D02*
D03*
X216000D02*
D03*
X214032D02*
D03*
X212063D02*
D03*
D40*
X144000Y86000D02*
D03*
D41*
X103842Y76000D02*
D03*
Y86000D02*
D03*
Y96000D02*
D03*
D42*
X154500Y222732D02*
D03*
Y219268D02*
D03*
D43*
X183000Y246063D02*
D03*
Y250000D02*
D03*
D44*
X211949Y109500D02*
D03*
X218051D02*
D03*
D45*
X260000Y264000D02*
D03*
Y244000D02*
D03*
X38000Y34000D02*
D03*
Y54000D02*
D03*
X40000Y250000D02*
D03*
Y270000D02*
D03*
D46*
X18000Y80000D02*
D03*
X271000Y197000D02*
D03*
X277500Y25500D02*
D03*
X76500Y285500D02*
D03*
D47*
X85500Y232000D02*
D03*
X151000Y97000D02*
D03*
Y86000D02*
D03*
Y75000D02*
D03*
X145500Y80500D02*
D03*
Y91500D02*
D03*
X140000Y97000D02*
D03*
Y86000D02*
D03*
Y75000D02*
D03*
X148500Y228500D02*
D03*
X174000Y222500D02*
D03*
M02*
