G04*
G04 #@! TF.GenerationSoftware,Altium Limited,Altium Designer,22.9.1 (49)*
G04*
G04 Layer_Color=8421504*
%FSLAX25Y25*%
%MOIN*%
G70*
G04*
G04 #@! TF.SameCoordinates,F90F1F70-A081-4BF1-957E-811509834440*
G04*
G04*
G04 #@! TF.FilePolarity,Positive*
G04*
G01*
G75*
%ADD15R,0.02362X0.00984*%
%ADD16R,0.00984X0.02362*%
%ADD17R,0.06717X0.04546*%
%ADD18O,0.01181X0.06693*%
%ADD19R,0.05000X0.15512*%
%ADD20R,0.01394X0.01034*%
%ADD21R,0.02631X0.02648*%
%ADD22R,0.17323X0.07480*%
%ADD23R,0.15512X0.05000*%
%ADD24R,0.28347X0.41339*%
%ADD25R,0.11221X0.04134*%
%ADD26R,0.02441X0.02598*%
%ADD27R,0.02559X0.02559*%
%ADD28R,0.03591X0.03775*%
%ADD29R,0.01860X0.01843*%
%ADD30R,0.01843X0.01860*%
%ADD31R,0.05315X0.03740*%
%ADD32R,0.04749X0.03765*%
%ADD33R,0.01772X0.03740*%
%ADD34R,0.14567X0.03858*%
%ADD35R,0.03197X0.02985*%
%ADD36R,0.04453X0.03591*%
%ADD37R,0.01968X0.01575*%
G36*
X133543Y249174D02*
X133539Y249213D01*
Y252016D01*
X133543Y252054D01*
X133554Y252091D01*
X133573Y252125D01*
X133597Y252155D01*
X133627Y252179D01*
X133661Y252198D01*
X133698Y252209D01*
X133736Y252213D01*
X134327D01*
X134365Y252209D01*
X134402Y252198D01*
X134436Y252179D01*
X134466Y252155D01*
X134491Y252125D01*
X134509Y252091D01*
X134520Y252054D01*
X134524Y252016D01*
Y249213D01*
X134520Y249174D01*
X134509Y249137D01*
X134491Y249103D01*
X134466Y249073D01*
X134436Y249049D01*
X134402Y249031D01*
X134365Y249020D01*
X134327Y249016D01*
X133736D01*
X133698Y249020D01*
X133661Y249031D01*
X133627Y249049D01*
X133597Y249073D01*
X133573Y249103D01*
X133554Y249137D01*
X133543Y249174D01*
D02*
G37*
G36*
Y253170D02*
X133539Y253209D01*
Y256012D01*
X133543Y256050D01*
X133554Y256087D01*
X133573Y256121D01*
X133597Y256151D01*
X133627Y256175D01*
X133661Y256194D01*
X133698Y256205D01*
X133736Y256209D01*
X134327D01*
X134365Y256205D01*
X134402Y256194D01*
X134436Y256175D01*
X134466Y256151D01*
X134491Y256121D01*
X134509Y256087D01*
X134520Y256050D01*
X134524Y256012D01*
Y253209D01*
X134520Y253170D01*
X134509Y253133D01*
X134491Y253099D01*
X134466Y253069D01*
X134436Y253045D01*
X134402Y253027D01*
X134365Y253016D01*
X134327Y253012D01*
X133736D01*
X133698Y253016D01*
X133661Y253027D01*
X133627Y253045D01*
X133597Y253069D01*
X133573Y253099D01*
X133554Y253133D01*
X133543Y253170D01*
D02*
G37*
D15*
X137575Y253941D02*
D03*
Y251382D02*
D03*
Y248823D02*
D03*
Y246854D02*
D03*
X130488D02*
D03*
Y248823D02*
D03*
Y251382D02*
D03*
Y253941D02*
D03*
D16*
X136000Y244000D02*
D03*
X134031D02*
D03*
X132063D02*
D03*
D17*
X106000Y257023D02*
D03*
X167000Y260523D02*
D03*
Y250477D02*
D03*
X106000Y246977D02*
D03*
D18*
X219937Y91571D02*
D03*
X217969D02*
D03*
X216000D02*
D03*
X214032D02*
D03*
X212063D02*
D03*
X219937Y75429D02*
D03*
X217969D02*
D03*
X216000D02*
D03*
X214032D02*
D03*
X212063D02*
D03*
D19*
X246000Y46744D02*
D03*
X236000D02*
D03*
X226000D02*
D03*
X216000D02*
D03*
X246000Y22256D02*
D03*
X236000D02*
D03*
X226000D02*
D03*
X216000D02*
D03*
D20*
X218000Y126500D02*
D03*
X215998D02*
D03*
D21*
X139523Y219500D02*
D03*
X143477D02*
D03*
D22*
X104374Y30500D02*
D03*
X138626D02*
D03*
D23*
X254256Y102000D02*
D03*
Y92000D02*
D03*
Y82000D02*
D03*
Y72000D02*
D03*
X278744Y102000D02*
D03*
Y92000D02*
D03*
Y82000D02*
D03*
Y72000D02*
D03*
D24*
X144000Y86000D02*
D03*
D25*
X103842Y76000D02*
D03*
Y86000D02*
D03*
Y96000D02*
D03*
D26*
X154500Y222732D02*
D03*
Y219268D02*
D03*
D27*
X183000Y246063D02*
D03*
Y250000D02*
D03*
D28*
X150500Y256361D02*
D03*
Y250639D02*
D03*
X116000Y254861D02*
D03*
Y249139D02*
D03*
D29*
X165500Y222583D02*
D03*
Y219417D02*
D03*
X195000Y245917D02*
D03*
Y249083D02*
D03*
D30*
X151000Y234500D02*
D03*
X154166D02*
D03*
D31*
X116000Y270000D02*
D03*
Y275905D02*
D03*
X103529Y270000D02*
D03*
Y275905D02*
D03*
D32*
X156000Y271965D02*
D03*
Y280035D02*
D03*
D33*
X211949Y109500D02*
D03*
X218051D02*
D03*
D34*
X134000Y274665D02*
D03*
Y265335D02*
D03*
D35*
X86500Y87032D02*
D03*
Y91969D02*
D03*
D36*
X122957Y225500D02*
D03*
X128000D02*
D03*
D37*
X117500Y239075D02*
D03*
Y235925D02*
D03*
M02*
