G04*
G04 #@! TF.GenerationSoftware,Altium Limited,Altium Designer,22.9.1 (49)*
G04*
G04 Layer_Color=16711935*
%FSLAX25Y25*%
%MOIN*%
G70*
G04*
G04 #@! TF.SameCoordinates,F90F1F70-A081-4BF1-957E-811509834440*
G04*
G04*
G04 #@! TF.FilePolarity,Negative*
G04*
G01*
G75*
%ADD45C,0.08300*%
%ADD46C,0.21800*%
%ADD47C,0.05800*%
G36*
X230500Y278500D02*
X219000D01*
X210000Y269500D01*
Y269000D01*
X174500D01*
Y246000D01*
X161153D01*
X160962Y246462D01*
X161500Y247000D01*
Y269000D01*
X145000D01*
Y237000D01*
X64000D01*
Y254500D01*
X96500D01*
X107500Y265500D01*
X107500Y272500D01*
X107000Y272000D01*
X74000D01*
Y295500D01*
X230500D01*
Y278500D01*
D02*
G37*
G36*
X296000Y4000D02*
X58500D01*
Y70500D01*
Y89000D01*
X67000Y97500D01*
Y103500D01*
X4000D01*
Y179000D01*
X57500D01*
X59500Y182000D01*
Y220000D01*
X89000D01*
Y193000D01*
X108000D01*
X119000Y182000D01*
Y112000D01*
X133038Y97962D01*
X132847Y97500D01*
X133500D01*
Y70500D01*
X157000D01*
Y98000D01*
X173500Y114500D01*
X174000D01*
Y207000D01*
X199000Y232000D01*
X296000D01*
Y4000D01*
D02*
G37*
D45*
X260000Y264000D02*
D03*
Y244000D02*
D03*
X38000Y34000D02*
D03*
Y54000D02*
D03*
X40000Y250000D02*
D03*
Y270000D02*
D03*
D46*
X18000Y80000D02*
D03*
X271000Y197000D02*
D03*
X277500Y25500D02*
D03*
X76500Y285500D02*
D03*
D47*
X85500Y232000D02*
D03*
X148500Y228500D02*
D03*
X174000Y222500D02*
D03*
M02*
