G04*
G04 #@! TF.GenerationSoftware,Altium Limited,Altium Designer,22.9.1 (49)*
G04*
G04 Layer_Color=65535*
%FSLAX25Y25*%
%MOIN*%
G70*
G04*
G04 #@! TF.SameCoordinates,F90F1F70-A081-4BF1-957E-811509834440*
G04*
G04*
G04 #@! TF.FilePolarity,Positive*
G04*
G01*
G75*
%ADD10C,0.02000*%
%ADD11C,0.00984*%
%ADD12C,0.00600*%
%ADD13C,0.00787*%
%ADD14C,0.01000*%
D10*
X261500Y280562D02*
G03*
X261500Y280562I-1500J0D01*
G01*
X39500Y17438D02*
G03*
X39500Y17438I-1500J0D01*
G01*
X41500Y233438D02*
G03*
X41500Y233438I-1500J0D01*
G01*
D11*
X223185Y91571D02*
G03*
X223185Y91571I-492J0D01*
G01*
X213992Y12315D02*
G03*
X213992Y12315I-492J0D01*
G01*
X150043Y30500D02*
G03*
X150043Y30500I-492J0D01*
G01*
X289177Y69500D02*
G03*
X289177Y69500I-492J0D01*
G01*
X104335Y100232D02*
G03*
X104335Y100232I-492J0D01*
G01*
X134394Y258780D02*
G03*
X134394Y258780I-492J0D01*
G01*
D12*
X241800Y234662D02*
Y278062D01*
Y234662D02*
X278200D01*
Y278062D01*
X241800D02*
X278200D01*
X56200Y19938D02*
Y63338D01*
X19800D02*
X56200D01*
X19800Y19938D02*
Y63338D01*
Y19938D02*
X56200D01*
X58200Y235938D02*
Y279338D01*
X21800D02*
X58200D01*
X21800Y235938D02*
Y279338D01*
Y235938D02*
X58200D01*
D13*
X209898Y86650D02*
X222102D01*
X209898Y80350D02*
X222102D01*
Y86650D01*
X209898Y80350D02*
Y86650D01*
X207417Y19402D02*
X212024D01*
X219976D02*
X222024D01*
X229976D02*
X232024D01*
X239976D02*
X242024D01*
X249976D02*
X254583D01*
Y49598D01*
X207417D02*
X212024D01*
X219976D02*
X222024D01*
X229976D02*
X232024D01*
X239976D02*
X242024D01*
X249976D02*
X254583D01*
X207417Y19402D02*
Y49598D01*
X215300Y128724D02*
X218697D01*
X215300Y124276D02*
X218697D01*
X163457Y253931D02*
Y257069D01*
X170543Y253931D02*
Y257069D01*
X138208Y216601D02*
X144792D01*
X138208Y222399D02*
X144792D01*
X100831Y39358D02*
Y43295D01*
Y17705D02*
Y21642D01*
Y17705D02*
X108705Y9831D01*
X100831Y43295D02*
X108705Y51169D01*
X142169D01*
X108705Y9831D02*
X142169D01*
Y25284D01*
Y35717D02*
Y51169D01*
X281598Y63417D02*
Y68024D01*
Y75976D02*
Y78024D01*
Y85976D02*
Y88024D01*
Y95976D02*
Y98024D01*
Y105976D02*
Y110583D01*
X251402D02*
X281598D01*
X251402Y63417D02*
Y68024D01*
Y75976D02*
Y78024D01*
Y85976D02*
Y88024D01*
Y95976D02*
Y98024D01*
Y105976D02*
Y110583D01*
Y63417D02*
X281598D01*
X116441Y65528D02*
X128252D01*
X116441D02*
Y106472D01*
X128252D01*
X147130Y248752D02*
Y258248D01*
X153870Y248752D02*
Y258248D01*
X162843Y218495D02*
Y223505D01*
X168157Y218495D02*
Y223505D01*
X150078Y231842D02*
X155088D01*
X150078Y237158D02*
X155088D01*
X111738Y268643D02*
Y277305D01*
X120232Y268622D02*
Y277284D01*
X99266Y268643D02*
Y277305D01*
X107761Y268622D02*
Y277284D01*
X112630Y247252D02*
Y256748D01*
X119370Y247252D02*
Y256748D01*
X158374Y275028D02*
Y276972D01*
X153626Y275028D02*
Y276972D01*
X214409Y110976D02*
X215591D01*
X214409Y108024D02*
X215591D01*
X102457Y250431D02*
Y253569D01*
X109543Y250431D02*
Y253569D01*
X125535Y261535D02*
X142465D01*
Y278071D02*
Y278465D01*
Y268740D02*
Y271260D01*
Y261535D02*
Y261929D01*
X125535Y278465D02*
X142465D01*
X125535Y278071D02*
Y278465D01*
Y268740D02*
Y271260D01*
Y261535D02*
Y261929D01*
X89846Y85539D02*
Y93461D01*
X83153Y85539D02*
Y93461D01*
X120730Y222130D02*
X130227D01*
X120730Y228870D02*
X130227D01*
X119961Y235433D02*
Y239567D01*
X115039Y235433D02*
Y239567D01*
X197658Y244995D02*
Y250005D01*
X192342Y244995D02*
Y250005D01*
D14*
X10000Y176680D02*
Y170682D01*
X11999Y172682D01*
X13999Y170682D01*
Y176680D01*
X15998Y170682D02*
X17997D01*
X16998D01*
Y174681D01*
X15998D01*
X20996Y170682D02*
X22996D01*
X21996D01*
Y176680D01*
X20996D01*
X29994D02*
Y170682D01*
X26994D01*
X25995Y171682D01*
Y173681D01*
X26994Y174681D01*
X29994D01*
X35992D02*
X32993D01*
X31993Y173681D01*
Y171682D01*
X32993Y170682D01*
X35992D01*
X38991Y174681D02*
X40990D01*
X41990Y173681D01*
Y170682D01*
X38991D01*
X37991Y171682D01*
X38991Y172682D01*
X41990D01*
X44989Y175681D02*
Y174681D01*
X43989D01*
X45988D01*
X44989D01*
Y171682D01*
X45988Y170682D01*
X10000Y161085D02*
Y167083D01*
X12999D01*
X13999Y166083D01*
Y164084D01*
X12999Y163084D01*
X10000D01*
X11999D02*
X13999Y161085D01*
X16998Y165083D02*
X18997D01*
X19997Y164084D01*
Y161085D01*
X16998D01*
X15998Y162084D01*
X16998Y163084D01*
X19997D01*
X25995Y165083D02*
X22996D01*
X21996Y164084D01*
Y162084D01*
X22996Y161085D01*
X25995D01*
X27994D02*
X29994D01*
X28994D01*
Y165083D01*
X27994D01*
X32993Y161085D02*
Y165083D01*
X35992D01*
X36991Y164084D01*
Y161085D01*
X40990Y159085D02*
X41990D01*
X42989Y160085D01*
Y165083D01*
X39990D01*
X38991Y164084D01*
Y162084D01*
X39990Y161085D01*
X42989D01*
X10000Y139890D02*
Y145888D01*
X12999D01*
X13999Y144888D01*
Y142889D01*
X12999Y141889D01*
X10000D01*
X11999D02*
X13999Y139890D01*
X15998Y143889D02*
Y140890D01*
X16998Y139890D01*
X19997D01*
Y138890D01*
X18997Y137891D01*
X17997D01*
X19997Y139890D02*
Y143889D01*
X22996D02*
X24995D01*
X25995Y142889D01*
Y139890D01*
X22996D01*
X21996Y140890D01*
X22996Y141889D01*
X25995D01*
X27994Y139890D02*
Y143889D01*
X30993D01*
X31993Y142889D01*
Y139890D01*
X10000Y128293D02*
Y134291D01*
X12999D01*
X13999Y133291D01*
Y131292D01*
X12999Y130292D01*
X10000D01*
X11999D02*
X13999Y128293D01*
X18997D02*
X16998D01*
X15998Y129293D01*
Y131292D01*
X16998Y132292D01*
X18997D01*
X19997Y131292D01*
Y130292D01*
X15998D01*
X21996Y128293D02*
X23995D01*
X22996D01*
Y132292D01*
X21996D01*
X30993Y134291D02*
Y128293D01*
X27994D01*
X26994Y129293D01*
Y131292D01*
X27994Y132292D01*
X30993D01*
X32993Y134291D02*
Y128293D01*
Y131292D01*
X33992Y132292D01*
X35992D01*
X36991Y131292D01*
Y128293D01*
X41990D02*
X39990D01*
X38991Y129293D01*
Y131292D01*
X39990Y132292D01*
X41990D01*
X42989Y131292D01*
Y130292D01*
X38991D01*
X45988Y132292D02*
X47988D01*
X48987Y131292D01*
Y128293D01*
X45988D01*
X44989Y129293D01*
X45988Y130292D01*
X48987D01*
X54985Y134291D02*
Y128293D01*
X51986D01*
X50987Y129293D01*
Y131292D01*
X51986Y132292D01*
X54985D01*
X10000Y115096D02*
X13999D01*
X11999D01*
Y109098D01*
X15998Y113096D02*
Y109098D01*
Y111097D01*
X16998Y112097D01*
X17997Y113096D01*
X18997D01*
X24995Y109098D02*
X22996D01*
X21996Y110097D01*
Y112097D01*
X22996Y113096D01*
X24995D01*
X25995Y112097D01*
Y111097D01*
X21996D01*
X27994Y113096D02*
X29994Y109098D01*
X31993Y113096D01*
X33992Y109098D02*
X35992D01*
X34992D01*
Y113096D01*
X33992D01*
X38991Y109098D02*
Y113096D01*
X41990D01*
X42989Y112097D01*
Y109098D01*
X10000Y105498D02*
Y99500D01*
X13999D01*
X16998Y103499D02*
X18997D01*
X19997Y102499D01*
Y99500D01*
X16998D01*
X15998Y100500D01*
X16998Y101499D01*
X19997D01*
X21996Y99500D02*
Y105498D01*
Y101499D02*
X24995Y103499D01*
X21996Y101499D02*
X24995Y99500D01*
X30993D02*
X28994D01*
X27994Y100500D01*
Y102499D01*
X28994Y103499D01*
X30993D01*
X31993Y102499D01*
Y101499D01*
X27994D01*
X93500Y20499D02*
X97499D01*
X95499Y22499D02*
Y18500D01*
X145000Y20500D02*
X148999D01*
X254999Y60498D02*
X251000D01*
Y57499D01*
X252999Y58499D01*
X253999D01*
X254999Y57499D01*
Y55500D01*
X253999Y54500D01*
X252000D01*
X251000Y55500D01*
X256998Y60498D02*
Y56499D01*
X258997Y54500D01*
X260997Y56499D01*
Y60498D01*
X278991Y59498D02*
X277991Y60498D01*
X275992D01*
X274992Y59498D01*
Y55500D01*
X275992Y54500D01*
X277991D01*
X278991Y55500D01*
Y57499D01*
X276992D01*
X280990Y54500D02*
Y60498D01*
X284989Y54500D01*
Y60498D01*
X286988D02*
Y54500D01*
X289987D01*
X290987Y55500D01*
Y59498D01*
X289987Y60498D01*
X286988D01*
X271499Y287998D02*
X267500D01*
Y284999D01*
X269499Y285999D01*
X270499D01*
X271499Y284999D01*
Y283000D01*
X270499Y282000D01*
X268500D01*
X267500Y283000D01*
X273498Y287998D02*
Y283999D01*
X275497Y282000D01*
X277497Y283999D01*
Y287998D01*
X285494Y284999D02*
X289493D01*
X287493Y286998D02*
Y283000D01*
X24000Y229498D02*
Y223500D01*
X26999D01*
X27999Y224500D01*
Y225499D01*
X26999Y226499D01*
X24000D01*
X26999D01*
X27999Y227499D01*
Y228498D01*
X26999Y229498D01*
X24000D01*
X30998Y227499D02*
X32997D01*
X33997Y226499D01*
Y223500D01*
X30998D01*
X29998Y224500D01*
X30998Y225499D01*
X33997D01*
X36996Y228498D02*
Y227499D01*
X35996D01*
X37995D01*
X36996D01*
Y224500D01*
X37995Y223500D01*
X46993Y226499D02*
X50991D01*
X48992Y228498D02*
Y224500D01*
X25000Y7000D02*
X26999D01*
X26000D01*
Y12998D01*
X25000Y11998D01*
X33997Y7000D02*
X29998D01*
X33997Y10999D01*
Y11998D01*
X32997Y12998D01*
X30998D01*
X29998Y11998D01*
X35996Y12998D02*
Y8999D01*
X37996Y7000D01*
X39995Y8999D01*
Y12998D01*
X47993Y9999D02*
X51991D01*
X49992Y11998D02*
Y8000D01*
X36000Y82999D02*
X34001D01*
X35001D01*
Y78001D01*
X34001Y77001D01*
X33001D01*
X32002Y78001D01*
X41998Y77001D02*
X38000D01*
X41998Y81000D01*
Y81999D01*
X40999Y82999D01*
X38999D01*
X38000Y81999D01*
X38000Y291999D02*
X36001D01*
X37001D01*
Y287001D01*
X36001Y286001D01*
X35001D01*
X34002Y287001D01*
X43998Y291999D02*
X40000D01*
Y289000D01*
X41999Y290000D01*
X42999D01*
X43998Y289000D01*
Y287001D01*
X42999Y286001D01*
X40999D01*
X40000Y287001D01*
X241500Y287999D02*
X239501D01*
X240501D01*
Y283001D01*
X239501Y282001D01*
X238501D01*
X237502Y283001D01*
X246499Y282001D02*
Y287999D01*
X243500Y285000D01*
X247498D01*
X212001Y103499D02*
Y98501D01*
X213001Y97501D01*
X215000D01*
X216000Y98501D01*
Y103499D01*
X217999Y97501D02*
X219999D01*
X218999D01*
Y103499D01*
X217999Y102499D01*
X201000Y36999D02*
X199001D01*
X200000D01*
Y32001D01*
X199001Y31001D01*
X198001D01*
X197001Y32001D01*
X202999Y31001D02*
X204999D01*
X203999D01*
Y36999D01*
X202999Y35999D01*
X215498Y136999D02*
X214498Y137999D01*
X212499D01*
X211499Y136999D01*
Y133001D01*
X212499Y132001D01*
X214498D01*
X215498Y133001D01*
X220496Y132001D02*
Y137999D01*
X217497Y135000D01*
X221496D01*
X169000Y269999D02*
X168001Y270999D01*
X166001D01*
X165002Y269999D01*
Y266001D01*
X166001Y265001D01*
X168001D01*
X169000Y266001D01*
X171000Y270999D02*
X174998D01*
Y269999D01*
X171000Y266001D01*
Y265001D01*
X133502Y208001D02*
Y213999D01*
X136501D01*
X137500Y212999D01*
Y211000D01*
X136501Y210000D01*
X133502D01*
X135501D02*
X137500Y208001D01*
X143498Y213999D02*
X139500D01*
Y211000D01*
X141499Y212000D01*
X142499D01*
X143498Y211000D01*
Y209001D01*
X142499Y208001D01*
X140499D01*
X139500Y209001D01*
X87500Y32499D02*
X86500Y33499D01*
X84501D01*
X83501Y32499D01*
Y28501D01*
X84501Y27501D01*
X86500D01*
X87500Y28501D01*
X89499Y27501D02*
X91499D01*
X90499D01*
Y33499D01*
X89499Y32499D01*
X263500Y119999D02*
X261501D01*
X262501D01*
Y115001D01*
X261501Y114001D01*
X260501D01*
X259502Y115001D01*
X265500Y118999D02*
X266499Y119999D01*
X268499D01*
X269498Y118999D01*
Y118000D01*
X268499Y117000D01*
X267499D01*
X268499D01*
X269498Y116000D01*
Y115001D01*
X268499Y114001D01*
X266499D01*
X265500Y115001D01*
X98002Y115499D02*
Y110501D01*
X99001Y109501D01*
X101001D01*
X102000Y110501D01*
Y115499D01*
X107998Y109501D02*
X104000D01*
X107998Y113500D01*
Y114499D01*
X106999Y115499D01*
X104999D01*
X104000Y114499D01*
X152501Y213999D02*
X151502Y214999D01*
X149502D01*
X148502Y213999D01*
Y210001D01*
X149502Y209001D01*
X151502D01*
X152501Y210001D01*
X154500Y209001D02*
X156500D01*
X155500D01*
Y214999D01*
X154500Y213999D01*
X159499D02*
X160499Y214999D01*
X162498D01*
X163498Y213999D01*
Y213000D01*
X162498Y212000D01*
X161498D01*
X162498D01*
X163498Y211000D01*
Y210001D01*
X162498Y209001D01*
X160499D01*
X159499Y210001D01*
X182501Y234501D02*
Y240499D01*
X185500D01*
X186500Y239499D01*
Y237500D01*
X185500Y236500D01*
X182501D01*
X184501D02*
X186500Y234501D01*
X188499D02*
X190499D01*
X189499D01*
Y240499D01*
X188499Y239499D01*
X149318Y245191D02*
X148318Y246191D01*
X146319D01*
X145319Y245191D01*
Y241192D01*
X146319Y240192D01*
X148318D01*
X149318Y241192D01*
X151317D02*
X152317Y240192D01*
X154316D01*
X155316Y241192D01*
Y245191D01*
X154316Y246191D01*
X152317D01*
X151317Y245191D01*
Y244191D01*
X152317Y243191D01*
X155316D01*
X172502Y211501D02*
Y217499D01*
X175501D01*
X176500Y216499D01*
Y214500D01*
X175501Y213500D01*
X172502D01*
X174501D02*
X176500Y211501D01*
X182498D02*
X178500D01*
X182498Y215500D01*
Y216499D01*
X181499Y217499D01*
X179499D01*
X178500Y216499D01*
X160002Y228501D02*
Y234499D01*
X163001D01*
X164000Y233499D01*
Y231500D01*
X163001Y230500D01*
X160002D01*
X162001D02*
X164000Y228501D01*
X166000Y233499D02*
X166999Y234499D01*
X168999D01*
X169998Y233499D01*
Y232500D01*
X168999Y231500D01*
X167999D01*
X168999D01*
X169998Y230500D01*
Y229501D01*
X168999Y228501D01*
X166999D01*
X166000Y229501D01*
X129002Y240999D02*
Y236001D01*
X130001Y235001D01*
X132001D01*
X133000Y236001D01*
Y240999D01*
X135000Y239999D02*
X135999Y240999D01*
X137999D01*
X138998Y239999D01*
Y239000D01*
X137999Y238000D01*
X136999D01*
X137999D01*
X138998Y237000D01*
Y236001D01*
X137999Y235001D01*
X135999D01*
X135000Y236001D01*
X113501Y286952D02*
X112501Y287952D01*
X110502D01*
X109502Y286952D01*
Y282953D01*
X110502Y281954D01*
X112501D01*
X113501Y282953D01*
X115500Y281954D02*
X117499D01*
X116500D01*
Y287952D01*
X115500Y286952D01*
X120499Y281954D02*
X122498D01*
X121498D01*
Y287952D01*
X120499Y286952D01*
X93501Y286999D02*
X92501Y287999D01*
X90502D01*
X89502Y286999D01*
Y283001D01*
X90502Y282001D01*
X92501D01*
X93501Y283001D01*
X95500Y282001D02*
X97500D01*
X96500D01*
Y287999D01*
X95500Y286999D01*
X100499D02*
X101499Y287999D01*
X103498D01*
X104498Y286999D01*
Y283001D01*
X103498Y282001D01*
X101499D01*
X100499Y283001D01*
Y286999D01*
X115000Y263999D02*
X114001Y264999D01*
X112001D01*
X111002Y263999D01*
Y260001D01*
X112001Y259001D01*
X114001D01*
X115000Y260001D01*
X117000Y263999D02*
X117999Y264999D01*
X119999D01*
X120998Y263999D01*
Y263000D01*
X119999Y262000D01*
X120998Y261000D01*
Y260001D01*
X119999Y259001D01*
X117999D01*
X117000Y260001D01*
Y261000D01*
X117999Y262000D01*
X117000Y263000D01*
Y263999D01*
X117999Y262000D02*
X119999D01*
X150501Y290999D02*
X149502Y291999D01*
X147502D01*
X146502Y290999D01*
Y287001D01*
X147502Y286001D01*
X149502D01*
X150501Y287001D01*
X152500Y286001D02*
X154500D01*
X153500D01*
Y291999D01*
X152500Y290999D01*
X161498Y286001D02*
X157499D01*
X161498Y290000D01*
Y290999D01*
X160498Y291999D01*
X158499D01*
X157499Y290999D01*
X214000Y118499D02*
X213001Y119499D01*
X211001D01*
X210002Y118499D01*
Y114501D01*
X211001Y113501D01*
X213001D01*
X214000Y114501D01*
X216000Y118499D02*
X216999Y119499D01*
X218999D01*
X219998Y118499D01*
Y117500D01*
X218999Y116500D01*
X217999D01*
X218999D01*
X219998Y115500D01*
Y114501D01*
X218999Y113501D01*
X216999D01*
X216000Y114501D01*
X92000Y249999D02*
X91001Y250999D01*
X89001D01*
X88002Y249999D01*
Y246001D01*
X89001Y245001D01*
X91001D01*
X92000Y246001D01*
X97998Y250999D02*
X95999Y249999D01*
X94000Y248000D01*
Y246001D01*
X94999Y245001D01*
X96999D01*
X97998Y246001D01*
Y247000D01*
X96999Y248000D01*
X94000D01*
X130001Y288334D02*
Y282336D01*
X134000D01*
X135999D02*
X137999D01*
X136999D01*
Y288334D01*
X135999Y287334D01*
X85500Y100999D02*
X84501Y101999D01*
X82501D01*
X81502Y100999D01*
Y97001D01*
X82501Y96001D01*
X84501D01*
X85500Y97001D01*
X91498Y96001D02*
X87500D01*
X91498Y100000D01*
Y100999D01*
X90499Y101999D01*
X88499D01*
X87500Y100999D01*
X102501Y227999D02*
X101502Y228999D01*
X99502D01*
X98502Y227999D01*
Y224001D01*
X99502Y223001D01*
X101502D01*
X102501Y224001D01*
X104500Y223001D02*
X106500D01*
X105500D01*
Y228999D01*
X104500Y227999D01*
X112498Y223001D02*
Y228999D01*
X109499Y226000D01*
X113498D01*
X106500Y239499D02*
X105501Y240499D01*
X103501D01*
X102502Y239499D01*
Y235501D01*
X103501Y234501D01*
X105501D01*
X106500Y235501D01*
X112498Y240499D02*
X108500D01*
Y237500D01*
X110499Y238500D01*
X111499D01*
X112498Y237500D01*
Y235501D01*
X111499Y234501D01*
X109499D01*
X108500Y235501D01*
X191002Y253001D02*
Y258999D01*
X194001D01*
X195000Y257999D01*
Y256000D01*
X194001Y255000D01*
X191002D01*
X193001D02*
X195000Y253001D01*
X199999D02*
Y258999D01*
X197000Y256000D01*
X200998D01*
M02*
