G04*
G04 #@! TF.GenerationSoftware,Altium Limited,Altium Designer,22.9.1 (49)*
G04*
G04 Layer_Physical_Order=3*
G04 Layer_Color=16440176*
%FSLAX25Y25*%
%MOIN*%
G70*
G04*
G04 #@! TF.SameCoordinates,F90F1F70-A081-4BF1-957E-811509834440*
G04*
G04*
G04 #@! TF.FilePolarity,Positive*
G04*
G01*
G75*
%ADD14C,0.01000*%
%ADD45C,0.08300*%
%ADD48C,0.21000*%
%ADD49C,0.05000*%
G36*
X297500Y2500D02*
X2500D01*
Y297500D01*
X297500D01*
Y2500D01*
D02*
G37*
%LPC*%
G36*
X57000Y258816D02*
X24000D01*
X23688Y258754D01*
X23423Y258577D01*
X23246Y258312D01*
X23184Y258000D01*
Y230816D01*
X9000D01*
X8688Y230754D01*
X8423Y230577D01*
X8246Y230312D01*
X8184Y230000D01*
Y179000D01*
X8188Y178980D01*
X8184Y178961D01*
X8184Y178518D01*
Y92000D01*
X8246Y91688D01*
X8423Y91423D01*
X8688Y91246D01*
X9000Y91184D01*
X65500D01*
X65812Y91246D01*
X66077Y91423D01*
X66254Y91688D01*
X66316Y92000D01*
Y179000D01*
Y225746D01*
X66570Y225916D01*
X70838Y230184D01*
X81941D01*
X81994Y230195D01*
X82047Y230191D01*
X82148Y230226D01*
X82253Y230246D01*
X82590Y230177D01*
X82752Y230098D01*
X82819Y230043D01*
X82859Y229974D01*
X83474Y229359D01*
X84226Y228925D01*
X85066Y228700D01*
X85935D01*
X86774Y228925D01*
X87526Y229359D01*
X88141Y229974D01*
X88181Y230043D01*
X88248Y230098D01*
X88410Y230177D01*
X88747Y230246D01*
X88852Y230226D01*
X88953Y230191D01*
X89006Y230195D01*
X89059Y230184D01*
X145158D01*
X145401Y229684D01*
X145200Y228935D01*
Y228065D01*
X145425Y227226D01*
X145859Y226474D01*
X146474Y225859D01*
X147226Y225425D01*
X148066Y225200D01*
X148934D01*
X149774Y225425D01*
X150526Y225859D01*
X151141Y226474D01*
X151575Y227226D01*
X151800Y228065D01*
Y228935D01*
X151599Y229684D01*
X151842Y230184D01*
X182500D01*
X182812Y230246D01*
X183077Y230423D01*
X183254Y230688D01*
X183316Y231000D01*
Y249000D01*
X183254Y249312D01*
X183077Y249577D01*
X182812Y249754D01*
X182500Y249816D01*
X57816D01*
Y258000D01*
X57754Y258312D01*
X57577Y258577D01*
X57312Y258754D01*
X57000Y258816D01*
D02*
G37*
G36*
X174434Y225800D02*
X173566D01*
X172726Y225575D01*
X171974Y225141D01*
X171359Y224526D01*
X170925Y223774D01*
X170700Y222935D01*
Y222065D01*
X170925Y221226D01*
X171359Y220474D01*
X171974Y219859D01*
X172726Y219425D01*
X173566Y219200D01*
X174434D01*
X175274Y219425D01*
X176026Y219859D01*
X176641Y220474D01*
X177075Y221226D01*
X177300Y222065D01*
Y222935D01*
X177075Y223774D01*
X176641Y224526D01*
X176026Y225141D01*
X175274Y225575D01*
X174434Y225800D01*
D02*
G37*
G36*
X292500Y277816D02*
X224500D01*
X224188Y277754D01*
X223923Y277577D01*
X223746Y277312D01*
X223684Y277000D01*
Y254500D01*
X223746Y254188D01*
X223923Y253923D01*
X224188Y253746D01*
X224500Y253684D01*
X277184D01*
Y234838D01*
X245423Y203077D01*
X245246Y202812D01*
X245184Y202500D01*
X245184Y202500D01*
Y116500D01*
X245246Y116188D01*
X245423Y115923D01*
X245688Y115746D01*
X246000Y115684D01*
X292500D01*
X292812Y115746D01*
X293077Y115923D01*
X293254Y116188D01*
X293316Y116500D01*
Y277000D01*
X293254Y277312D01*
X293077Y277577D01*
X292812Y277754D01*
X292500Y277816D01*
D02*
G37*
G36*
X38652Y38950D02*
X37348D01*
X36089Y38613D01*
X34961Y37961D01*
X34039Y37039D01*
X33387Y35911D01*
X33050Y34652D01*
Y33348D01*
X33387Y32089D01*
X34039Y30961D01*
X34961Y30039D01*
X36089Y29387D01*
X37348Y29050D01*
X38652D01*
X39911Y29387D01*
X41039Y30039D01*
X41961Y30961D01*
X42613Y32089D01*
X42950Y33348D01*
Y34652D01*
X42613Y35911D01*
X41961Y37039D01*
X41039Y37961D01*
X39911Y38613D01*
X38652Y38950D01*
D02*
G37*
%LPD*%
G36*
X57000Y249000D02*
X182500D01*
Y231000D01*
X150667D01*
X150526Y231141D01*
X149774Y231575D01*
X148934Y231800D01*
X148066D01*
X147226Y231575D01*
X146474Y231141D01*
X146333Y231000D01*
X89059D01*
X88755Y231397D01*
X88800Y231565D01*
Y232435D01*
X88575Y233274D01*
X88141Y234026D01*
X87526Y234641D01*
X86774Y235075D01*
X85935Y235300D01*
X85066D01*
X84226Y235075D01*
X83474Y234641D01*
X82859Y234026D01*
X82425Y233274D01*
X82200Y232435D01*
Y231565D01*
X82245Y231397D01*
X81941Y231000D01*
X70500D01*
X65993Y226493D01*
X65500Y226697D01*
Y179000D01*
Y92000D01*
X9000D01*
Y178518D01*
X9000Y178961D01*
X9484Y179000D01*
X9000D01*
Y230000D01*
X24000D01*
Y258000D01*
X57000D01*
Y249000D01*
D02*
G37*
%LPC*%
G36*
X65493Y230000D02*
X57000D01*
D01*
X65005D01*
X65493Y230000D01*
X65493Y229999D01*
Y230000D01*
D02*
G37*
%LPD*%
G36*
X292500Y116500D02*
X246000D01*
Y202500D01*
X278000Y234500D01*
Y254500D01*
X224500D01*
Y277000D01*
X292500D01*
Y116500D01*
D02*
G37*
%LPC*%
G36*
X271889Y208300D02*
X270111D01*
X268354Y208022D01*
X266662Y207472D01*
X265077Y206665D01*
X263638Y205619D01*
X262381Y204361D01*
X261335Y202923D01*
X260528Y201338D01*
X259978Y199646D01*
X259700Y197889D01*
Y196111D01*
X259978Y194354D01*
X260528Y192662D01*
X261335Y191077D01*
X262381Y189639D01*
X263638Y188381D01*
X265077Y187335D01*
X266662Y186528D01*
X268354Y185978D01*
X270111Y185700D01*
X271889D01*
X273646Y185978D01*
X275338Y186528D01*
X276922Y187335D01*
X278362Y188381D01*
X279619Y189639D01*
X280665Y191077D01*
X281472Y192662D01*
X282022Y194354D01*
X282300Y196111D01*
Y197889D01*
X282022Y199646D01*
X281472Y201338D01*
X280665Y202923D01*
X279619Y204361D01*
X278362Y205619D01*
X276922Y206665D01*
X275338Y207472D01*
X273646Y208022D01*
X271889Y208300D01*
D02*
G37*
%LPD*%
G36*
X273455Y207226D02*
X275025Y206716D01*
X276495Y205967D01*
X277830Y204997D01*
X278997Y203830D01*
X279967Y202495D01*
X280716Y201025D01*
X281226Y199455D01*
X281484Y197825D01*
Y196175D01*
X281226Y194545D01*
X280716Y192975D01*
X279967Y191505D01*
X278997Y190170D01*
X277830Y189003D01*
X276495Y188033D01*
X275025Y187284D01*
X273455Y186774D01*
X271825Y186516D01*
X270175D01*
X268545Y186774D01*
X266975Y187284D01*
X265505Y188033D01*
X264170Y189003D01*
X263003Y190170D01*
X262033Y191505D01*
X261284Y192975D01*
X260774Y194545D01*
X260516Y196175D01*
Y197825D01*
X260774Y199455D01*
X261284Y201025D01*
X262033Y202495D01*
X263003Y203830D01*
X264170Y204997D01*
X265505Y205967D01*
X266975Y206716D01*
X268545Y207226D01*
X270175Y207484D01*
X271825D01*
X273455Y207226D01*
D02*
G37*
D14*
X147418Y228500D02*
X148500D01*
D45*
X260000Y264000D02*
D03*
Y244000D02*
D03*
X38000Y54000D02*
D03*
X40000Y250000D02*
D03*
Y270000D02*
D03*
D48*
X18000Y80000D02*
D03*
X271000Y197000D02*
D03*
X277500Y25500D02*
D03*
X76500Y285500D02*
D03*
D49*
X254000Y122000D02*
D03*
X115000Y216500D02*
D03*
X146500Y137500D02*
D03*
X168500D02*
D03*
X157500D02*
D03*
X135500D02*
D03*
X125500D02*
D03*
Y127500D02*
D03*
X135500D02*
D03*
X146500D02*
D03*
X157500Y128000D02*
D03*
X168500D02*
D03*
X146000Y156500D02*
D03*
X168000D02*
D03*
X157000D02*
D03*
X135000D02*
D03*
X125000D02*
D03*
Y146500D02*
D03*
X135000D02*
D03*
X146000D02*
D03*
X157000Y147000D02*
D03*
X168000D02*
D03*
X146000Y176500D02*
D03*
X168000D02*
D03*
X157000D02*
D03*
X135000D02*
D03*
X125000D02*
D03*
Y166500D02*
D03*
X135000D02*
D03*
X146000D02*
D03*
X157000Y167000D02*
D03*
X168000D02*
D03*
Y187000D02*
D03*
X157000D02*
D03*
X146000Y186500D02*
D03*
X135000D02*
D03*
X125000D02*
D03*
X168500Y119000D02*
D03*
X157500D02*
D03*
X135500D02*
D03*
X146500D02*
D03*
X125500D02*
D03*
X125000Y206500D02*
D03*
Y196500D02*
D03*
X94000Y216500D02*
D03*
X104000D02*
D03*
X125000D02*
D03*
X151000Y97000D02*
D03*
Y86000D02*
D03*
Y75000D02*
D03*
X145500Y80500D02*
D03*
Y91500D02*
D03*
X140000Y97000D02*
D03*
Y86000D02*
D03*
Y75000D02*
D03*
X77000Y267500D02*
D03*
X197500Y264500D02*
D03*
X157500Y264000D02*
D03*
X150000D02*
D03*
X94000Y196500D02*
D03*
X135000D02*
D03*
X94000Y206500D02*
D03*
X115000D02*
D03*
X104000Y196500D02*
D03*
X157000D02*
D03*
X178500Y264500D02*
D03*
X100000Y263500D02*
D03*
X206500Y264500D02*
D03*
X85500Y267500D02*
D03*
X69000D02*
D03*
X86000Y259500D02*
D03*
X187500Y264500D02*
D03*
X168000Y196500D02*
D03*
X146000D02*
D03*
X115000D02*
D03*
X104000Y206500D02*
D03*
X254000Y129500D02*
D03*
X47500Y97500D02*
D03*
X57914Y97797D02*
D03*
X166000Y240500D02*
D03*
X176000D02*
D03*
X39500Y212000D02*
D03*
Y200500D02*
D03*
Y187000D02*
D03*
X52500Y187500D02*
D03*
Y200000D02*
D03*
Y212000D02*
D03*
X25500D02*
D03*
Y200500D02*
D03*
X26000Y187500D02*
D03*
X148500Y228500D02*
D03*
X229000Y269500D02*
D03*
M02*
