G04*
G04 #@! TF.GenerationSoftware,Altium Limited,Altium Designer,22.9.1 (49)*
G04*
G04 Layer_Physical_Order=2*
G04 Layer_Color=36540*
%FSLAX25Y25*%
%MOIN*%
G70*
G04*
G04 #@! TF.SameCoordinates,F90F1F70-A081-4BF1-957E-811509834440*
G04*
G04*
G04 #@! TF.FilePolarity,Positive*
G04*
G01*
G75*
%ADD45C,0.08300*%
%ADD48C,0.21000*%
%ADD49C,0.05000*%
G36*
X297500Y2500D02*
X2500D01*
Y297500D01*
X297500D01*
Y2500D01*
D02*
G37*
%LPC*%
G36*
X229434Y272800D02*
X228566D01*
X227726Y272575D01*
X226974Y272141D01*
X226359Y271526D01*
X225925Y270774D01*
X225700Y269935D01*
Y269065D01*
X225925Y268226D01*
X226359Y267474D01*
X226974Y266859D01*
X227726Y266425D01*
X228566Y266200D01*
X229434D01*
X230274Y266425D01*
X231026Y266859D01*
X231641Y267474D01*
X232075Y268226D01*
X232300Y269065D01*
Y269935D01*
X232075Y270774D01*
X231641Y271526D01*
X231026Y272141D01*
X230274Y272575D01*
X229434Y272800D01*
D02*
G37*
G36*
X260652Y268950D02*
X259348D01*
X258089Y268613D01*
X256961Y267961D01*
X256039Y267039D01*
X255387Y265911D01*
X255050Y264652D01*
Y263348D01*
X255387Y262089D01*
X256039Y260961D01*
X256961Y260039D01*
X258089Y259387D01*
X259348Y259050D01*
X260652D01*
X261911Y259387D01*
X263039Y260039D01*
X263961Y260961D01*
X264613Y262089D01*
X264950Y263348D01*
Y264652D01*
X264613Y265911D01*
X263961Y267039D01*
X263039Y267961D01*
X261911Y268613D01*
X260652Y268950D01*
D02*
G37*
G36*
X40652Y254950D02*
X39348D01*
X38089Y254613D01*
X36961Y253961D01*
X36039Y253039D01*
X35387Y251911D01*
X35050Y250652D01*
Y249348D01*
X35387Y248089D01*
X36039Y246961D01*
X36961Y246039D01*
X38089Y245387D01*
X39348Y245050D01*
X40652D01*
X41911Y245387D01*
X43039Y246039D01*
X43961Y246961D01*
X44613Y248089D01*
X44950Y249348D01*
Y250652D01*
X44613Y251911D01*
X43961Y253039D01*
X43039Y253961D01*
X41911Y254613D01*
X40652Y254950D01*
D02*
G37*
G36*
X176434Y243800D02*
X175566D01*
X174726Y243575D01*
X173974Y243141D01*
X173359Y242526D01*
X172925Y241774D01*
X172700Y240934D01*
Y240066D01*
X172925Y239226D01*
X173359Y238474D01*
X173974Y237859D01*
X174726Y237425D01*
X175566Y237200D01*
X176434D01*
X177274Y237425D01*
X178026Y237859D01*
X178641Y238474D01*
X179075Y239226D01*
X179300Y240066D01*
Y240934D01*
X179075Y241774D01*
X178641Y242526D01*
X178026Y243141D01*
X177274Y243575D01*
X176434Y243800D01*
D02*
G37*
G36*
X166434D02*
X165566D01*
X164726Y243575D01*
X163974Y243141D01*
X163359Y242526D01*
X162925Y241774D01*
X162700Y240934D01*
Y240066D01*
X162925Y239226D01*
X163359Y238474D01*
X163974Y237859D01*
X164726Y237425D01*
X165566Y237200D01*
X166434D01*
X167274Y237425D01*
X168026Y237859D01*
X168641Y238474D01*
X169075Y239226D01*
X169300Y240066D01*
Y240934D01*
X169075Y241774D01*
X168641Y242526D01*
X168026Y243141D01*
X167274Y243575D01*
X166434Y243800D01*
D02*
G37*
G36*
X85935Y235300D02*
X85066D01*
X84226Y235075D01*
X83474Y234641D01*
X82859Y234026D01*
X82425Y233274D01*
X82200Y232435D01*
Y231565D01*
X82425Y230726D01*
X82859Y229974D01*
X83474Y229359D01*
X84226Y228925D01*
X85066Y228700D01*
X85935D01*
X86774Y228925D01*
X87526Y229359D01*
X88141Y229974D01*
X88575Y230726D01*
X88800Y231565D01*
Y232435D01*
X88575Y233274D01*
X88141Y234026D01*
X87526Y234641D01*
X86774Y235075D01*
X85935Y235300D01*
D02*
G37*
G36*
X148934Y231800D02*
X148066D01*
X147226Y231575D01*
X146474Y231141D01*
X145859Y230526D01*
X145425Y229774D01*
X145200Y228935D01*
Y228065D01*
X145425Y227226D01*
X145859Y226474D01*
X146474Y225859D01*
X147226Y225425D01*
X148066Y225200D01*
X148934D01*
X149774Y225425D01*
X150526Y225859D01*
X151141Y226474D01*
X151575Y227226D01*
X151800Y228065D01*
Y228935D01*
X151575Y229774D01*
X151141Y230526D01*
X150526Y231141D01*
X149774Y231575D01*
X148934Y231800D01*
D02*
G37*
G36*
X174434Y225800D02*
X173566D01*
X172726Y225575D01*
X171974Y225141D01*
X171359Y224526D01*
X170925Y223774D01*
X170700Y222935D01*
Y222065D01*
X170925Y221226D01*
X171359Y220474D01*
X171974Y219859D01*
X172726Y219425D01*
X173566Y219200D01*
X174434D01*
X175274Y219425D01*
X176026Y219859D01*
X176641Y220474D01*
X177075Y221226D01*
X177300Y222065D01*
Y222935D01*
X177075Y223774D01*
X176641Y224526D01*
X176026Y225141D01*
X175274Y225575D01*
X174434Y225800D01*
D02*
G37*
G36*
X52934Y215300D02*
X52065D01*
X51226Y215075D01*
X50474Y214641D01*
X49859Y214026D01*
X49425Y213274D01*
X49200Y212435D01*
Y211565D01*
X49425Y210726D01*
X49859Y209974D01*
X50474Y209359D01*
X51226Y208925D01*
X52065Y208700D01*
X52934D01*
X53774Y208925D01*
X54526Y209359D01*
X55141Y209974D01*
X55575Y210726D01*
X55800Y211565D01*
Y212435D01*
X55575Y213274D01*
X55141Y214026D01*
X54526Y214641D01*
X53774Y215075D01*
X52934Y215300D01*
D02*
G37*
G36*
X39934D02*
X39066D01*
X38226Y215075D01*
X37474Y214641D01*
X36859Y214026D01*
X36425Y213274D01*
X36200Y212435D01*
Y211565D01*
X36425Y210726D01*
X36859Y209974D01*
X37474Y209359D01*
X38226Y208925D01*
X39066Y208700D01*
X39934D01*
X40774Y208925D01*
X41526Y209359D01*
X42141Y209974D01*
X42575Y210726D01*
X42800Y211565D01*
Y212435D01*
X42575Y213274D01*
X42141Y214026D01*
X41526Y214641D01*
X40774Y215075D01*
X39934Y215300D01*
D02*
G37*
G36*
X25934D02*
X25065D01*
X24226Y215075D01*
X23474Y214641D01*
X22859Y214026D01*
X22425Y213274D01*
X22200Y212435D01*
Y211565D01*
X22425Y210726D01*
X22859Y209974D01*
X23474Y209359D01*
X24226Y208925D01*
X25065Y208700D01*
X25934D01*
X26774Y208925D01*
X27526Y209359D01*
X28141Y209974D01*
X28575Y210726D01*
X28800Y211565D01*
Y212435D01*
X28575Y213274D01*
X28141Y214026D01*
X27526Y214641D01*
X26774Y215075D01*
X25934Y215300D01*
D02*
G37*
G36*
X39934Y203800D02*
X39066D01*
X38226Y203575D01*
X37474Y203141D01*
X36859Y202526D01*
X36425Y201774D01*
X36200Y200934D01*
Y200066D01*
X36425Y199226D01*
X36859Y198474D01*
X37474Y197859D01*
X38226Y197425D01*
X39066Y197200D01*
X39934D01*
X40774Y197425D01*
X41526Y197859D01*
X42141Y198474D01*
X42575Y199226D01*
X42800Y200066D01*
Y200934D01*
X42575Y201774D01*
X42141Y202526D01*
X41526Y203141D01*
X40774Y203575D01*
X39934Y203800D01*
D02*
G37*
G36*
X25934D02*
X25065D01*
X24226Y203575D01*
X23474Y203141D01*
X22859Y202526D01*
X22425Y201774D01*
X22200Y200934D01*
Y200066D01*
X22425Y199226D01*
X22859Y198474D01*
X23474Y197859D01*
X24226Y197425D01*
X25065Y197200D01*
X25934D01*
X26774Y197425D01*
X27526Y197859D01*
X28141Y198474D01*
X28575Y199226D01*
X28800Y200066D01*
Y200934D01*
X28575Y201774D01*
X28141Y202526D01*
X27526Y203141D01*
X26774Y203575D01*
X25934Y203800D01*
D02*
G37*
G36*
X52934Y203300D02*
X52065D01*
X51226Y203075D01*
X50474Y202641D01*
X49859Y202026D01*
X49425Y201274D01*
X49200Y200434D01*
Y199566D01*
X49425Y198726D01*
X49859Y197974D01*
X50474Y197359D01*
X51226Y196925D01*
X52065Y196700D01*
X52934D01*
X53774Y196925D01*
X54526Y197359D01*
X55141Y197974D01*
X55575Y198726D01*
X55800Y199566D01*
Y200434D01*
X55575Y201274D01*
X55141Y202026D01*
X54526Y202641D01*
X53774Y203075D01*
X52934Y203300D01*
D02*
G37*
G36*
Y190800D02*
X52065D01*
X51226Y190575D01*
X50474Y190141D01*
X49859Y189526D01*
X49425Y188774D01*
X49200Y187934D01*
Y187066D01*
X49425Y186226D01*
X49859Y185474D01*
X50474Y184859D01*
X51226Y184425D01*
X52065Y184200D01*
X52934D01*
X53774Y184425D01*
X54526Y184859D01*
X55141Y185474D01*
X55575Y186226D01*
X55800Y187066D01*
Y187934D01*
X55575Y188774D01*
X55141Y189526D01*
X54526Y190141D01*
X53774Y190575D01*
X52934Y190800D01*
D02*
G37*
G36*
X26434D02*
X25565D01*
X24726Y190575D01*
X23974Y190141D01*
X23359Y189526D01*
X22925Y188774D01*
X22700Y187934D01*
Y187066D01*
X22925Y186226D01*
X23359Y185474D01*
X23974Y184859D01*
X24726Y184425D01*
X25565Y184200D01*
X26434D01*
X27274Y184425D01*
X28026Y184859D01*
X28641Y185474D01*
X29075Y186226D01*
X29300Y187066D01*
Y187934D01*
X29075Y188774D01*
X28641Y189526D01*
X28026Y190141D01*
X27274Y190575D01*
X26434Y190800D01*
D02*
G37*
G36*
X39934Y190300D02*
X39066D01*
X38226Y190075D01*
X37474Y189641D01*
X36859Y189026D01*
X36425Y188274D01*
X36200Y187434D01*
Y186566D01*
X36425Y185726D01*
X36859Y184974D01*
X37474Y184359D01*
X38226Y183925D01*
X39066Y183700D01*
X39934D01*
X40774Y183925D01*
X41526Y184359D01*
X42141Y184974D01*
X42575Y185726D01*
X42800Y186566D01*
Y187434D01*
X42575Y188274D01*
X42141Y189026D01*
X41526Y189641D01*
X40774Y190075D01*
X39934Y190300D01*
D02*
G37*
G36*
X254434Y132800D02*
X253566D01*
X252726Y132575D01*
X251974Y132141D01*
X251359Y131526D01*
X250925Y130774D01*
X250700Y129934D01*
Y129066D01*
X250925Y128226D01*
X251359Y127474D01*
X251974Y126859D01*
X252726Y126425D01*
X253566Y126200D01*
X254434D01*
X255274Y126425D01*
X256026Y126859D01*
X256641Y127474D01*
X257075Y128226D01*
X257300Y129066D01*
Y129934D01*
X257075Y130774D01*
X256641Y131526D01*
X256026Y132141D01*
X255274Y132575D01*
X254434Y132800D01*
D02*
G37*
G36*
Y125300D02*
X253566D01*
X252726Y125075D01*
X251974Y124641D01*
X251359Y124026D01*
X250925Y123274D01*
X250700Y122434D01*
Y121566D01*
X250925Y120726D01*
X251359Y119974D01*
X251974Y119359D01*
X252726Y118925D01*
X253566Y118700D01*
X254434D01*
X255274Y118925D01*
X256026Y119359D01*
X256641Y119974D01*
X257075Y120726D01*
X257300Y121566D01*
Y122434D01*
X257075Y123274D01*
X256641Y124026D01*
X256026Y124641D01*
X255274Y125075D01*
X254434Y125300D01*
D02*
G37*
G36*
X58349Y101097D02*
X57480D01*
X56641Y100873D01*
X55888Y100438D01*
X55274Y99824D01*
X54839Y99071D01*
X54614Y98232D01*
Y97363D01*
X54839Y96524D01*
X55274Y95771D01*
X55888Y95157D01*
X56641Y94722D01*
X57480Y94497D01*
X58349D01*
X59188Y94722D01*
X59941Y95157D01*
X60555Y95771D01*
X60989Y96524D01*
X61214Y97363D01*
Y98232D01*
X60989Y99071D01*
X60555Y99824D01*
X59941Y100438D01*
X59188Y100873D01*
X58349Y101097D01*
D02*
G37*
G36*
X47934Y100800D02*
X47066D01*
X46226Y100575D01*
X45474Y100141D01*
X44859Y99526D01*
X44425Y98774D01*
X44200Y97935D01*
Y97066D01*
X44425Y96226D01*
X44859Y95474D01*
X45474Y94859D01*
X46226Y94425D01*
X47066Y94200D01*
X47934D01*
X48774Y94425D01*
X49526Y94859D01*
X50141Y95474D01*
X50575Y96226D01*
X50800Y97066D01*
Y97935D01*
X50575Y98774D01*
X50141Y99526D01*
X49526Y100141D01*
X48774Y100575D01*
X47934Y100800D01*
D02*
G37*
G36*
X38652Y38950D02*
X37348D01*
X36089Y38613D01*
X34961Y37961D01*
X34039Y37039D01*
X33387Y35911D01*
X33050Y34652D01*
Y33348D01*
X33387Y32089D01*
X34039Y30961D01*
X34961Y30039D01*
X36089Y29387D01*
X37348Y29050D01*
X38652D01*
X39911Y29387D01*
X41039Y30039D01*
X41961Y30961D01*
X42613Y32089D01*
X42950Y33348D01*
Y34652D01*
X42613Y35911D01*
X41961Y37039D01*
X41039Y37961D01*
X39911Y38613D01*
X38652Y38950D01*
D02*
G37*
%LPD*%
D45*
X260000Y244000D02*
D03*
X38000Y54000D02*
D03*
X40000Y270000D02*
D03*
D48*
X18000Y80000D02*
D03*
X271000Y197000D02*
D03*
X277500Y25500D02*
D03*
X76500Y285500D02*
D03*
D49*
X115000Y216500D02*
D03*
X146500Y137500D02*
D03*
X168500D02*
D03*
X157500D02*
D03*
X135500D02*
D03*
X125500D02*
D03*
Y127500D02*
D03*
X135500D02*
D03*
X146500D02*
D03*
X157500Y128000D02*
D03*
X168500D02*
D03*
X146000Y156500D02*
D03*
X168000D02*
D03*
X157000D02*
D03*
X135000D02*
D03*
X125000D02*
D03*
Y146500D02*
D03*
X135000D02*
D03*
X146000D02*
D03*
X157000Y147000D02*
D03*
X168000D02*
D03*
X146000Y176500D02*
D03*
X168000D02*
D03*
X157000D02*
D03*
X135000D02*
D03*
X125000D02*
D03*
Y166500D02*
D03*
X135000D02*
D03*
X146000D02*
D03*
X157000Y167000D02*
D03*
X168000D02*
D03*
Y187000D02*
D03*
X157000D02*
D03*
X146000Y186500D02*
D03*
X135000D02*
D03*
X125000D02*
D03*
X168500Y119000D02*
D03*
X157500D02*
D03*
X135500D02*
D03*
X146500D02*
D03*
X125500D02*
D03*
X125000Y206500D02*
D03*
Y196500D02*
D03*
X94000Y216500D02*
D03*
X104000D02*
D03*
X125000D02*
D03*
X151000Y97000D02*
D03*
Y86000D02*
D03*
Y75000D02*
D03*
X145500Y80500D02*
D03*
Y91500D02*
D03*
X140000Y97000D02*
D03*
Y86000D02*
D03*
Y75000D02*
D03*
X77000Y267500D02*
D03*
X197500Y264500D02*
D03*
X157500Y264000D02*
D03*
X150000D02*
D03*
X94000Y196500D02*
D03*
X135000D02*
D03*
X94000Y206500D02*
D03*
X115000D02*
D03*
X104000Y196500D02*
D03*
X157000D02*
D03*
X178500Y264500D02*
D03*
X100000Y263500D02*
D03*
X206500Y264500D02*
D03*
X85500Y267500D02*
D03*
X69000D02*
D03*
X86000Y259500D02*
D03*
X187500Y264500D02*
D03*
X168000Y196500D02*
D03*
X146000D02*
D03*
X115000D02*
D03*
X104000Y206500D02*
D03*
M02*
