M48
;Layer_Color=9474304
;FILE_FORMAT=2:5
INCH,LZ
;TYPE=PLATED
T1F00S00C0.02800
T2F00S00C0.06300
T3F00S00C0.12000
%
T01
X0254Y0122
Y01295
X01685Y0128
Y0119
X01575
Y0128
Y01375
X0157Y0147
Y01565
Y0167
Y01765
Y0187
Y01965
X0168
Y0187
Y01765
Y0167
Y01565
Y0147
X01685Y01375
X01465
X0146Y01465
Y01565
Y01665
Y01765
Y01865
Y01965
X0135
Y01865
Y01765
X0125
Y01665
Y01565
X0135
Y01465
X01355Y01375
X01255
X0125Y01465
X01255Y01275
Y0119
X01355
Y01275
X01465
Y0119
X0151Y0097
Y0086
Y0075
X01455Y00805
Y00915
X014Y0097
Y0086
Y0075
X0135Y01665
X0125Y01865
Y01965
Y02065
X0115
Y01965
X0104
X0094
Y02065
X0104
X0057914Y0097797
X00475Y00975
X00525Y01875
Y02
Y0212
X00395
Y02005
Y0187
X0026Y01875
X00255Y02005
Y0212
X0094Y02165
X0104
X0115
X0125
X01485Y02285
X0166Y02405
X0176
X0174Y02225
X01785Y02645
X01875
X01975
X02065
X01575Y0264
X015
X01Y02635
X0086Y02595
X00855Y02675
X0077
X0069
X00855Y0232
X0229Y02695
T02
X0038Y0034
Y0054
X004Y025
Y027
X026Y0264
Y0244
T03
X02775Y00255
X0271Y0197
X0018Y008
X00765Y02855
M30
